<svg xmlns="http://www.w3.org/2000/svg" viewBox="0 0 409.64 107.71"><title>haystack-420px</title><g id="Layer_2" data-name="Layer 2"><g id="Layer_1-2" data-name="Layer 1"><path d="M0,0H11.58V30.4h.22a18.33,18.33,0,0,1,15-7.06,19.39,19.39,0,0,1,13.1,5.22Q45.76,33.84,46,44.05V83.62H34.47V48.13q0-6.26-3.22-9.53a10.79,10.79,0,0,0-8.17-3.33,11,11,0,0,0-8.23,3.33q-3.27,3.27-3.27,9.53V83.62H0Z"/><path d="M91,78.35H90.8a9.76,9.76,0,0,1-5,4.47,23.13,23.13,0,0,1-9.21,1.49Q66.93,84.19,61.71,79a16.7,16.7,0,0,1-5.5-12.9A17.17,17.17,0,0,1,61,53.69q4.79-5.05,14-5.16H91V42.25q.12-7.91-11.83-7.67a20.47,20.47,0,0,0-6.83.92,8.44,8.44,0,0,0-4.11,3.69L59.14,32q6.6-8.89,19.48-8.67Q89.5,23.24,96,27.59T102.6,43V83.62H91Zm0-20H77.11q-10.12.23-10,7.18a6.45,6.45,0,0,0,2.61,5.16q2.51,2.36,8.29,2.35,7.29.12,10.3-1.77Q91,69.4,91,62.69Z"/><path d="M108.1,24.09h12.27L134,65.79h.22l13.6-41.7h12.33L135.35,96q-2.39,6.72-6.6,9.29a18.92,18.92,0,0,1-9.66,2.47h-3.83V96.47h3.39a7.64,7.64,0,0,0,4.22-1.26,6.91,6.91,0,0,0,2.71-3.91l3.17-10Z"/><path d="M167.88,65.44q7.08,7.64,18.27,7.63a15.06,15.06,0,0,0,8.19-2,6.3,6.3,0,0,0,3.18-5.62q0-3.23-1.9-4.48a9.62,9.62,0,0,0-5.17-1.43l-10.24-.92a19.19,19.19,0,0,1-11.86-5q-4.68-4.24-4.79-11.87.12-9.18,6.29-13.77,6-4.59,15.23-4.59a45.31,45.31,0,0,1,7.17.52,35.47,35.47,0,0,1,5.95,1.6,33.93,33.93,0,0,1,9.56,6l-7.18,8.66A35.38,35.38,0,0,0,193.51,36a22.86,22.86,0,0,0-8.46-1.45q-5.46,0-7.63,2a6.57,6.57,0,0,0-2.28,5.17,4.08,4.08,0,0,0,1.72,3.5c1.12,1.11,3.08,1.82,5.9,2.12l9.58.75q9,.69,13,5.63,3.73,4.83,3.73,12.23-.1,8.67-6.83,13.38T185.2,84.31q-14.12,0-25.4-10.66Z"/><path d="M220.92,6h11.57V24.09h8.45v9.17h-8.45V68q-.11,4.53,4.12,4.42h4.33V83.62h-6a13.53,13.53,0,0,1-10-3.89q-4-3.74-4-10.77V33.26h-5.81V24.09h5.81Z"/><path d="M283.15,78.35h-.22a9.8,9.8,0,0,1-5,4.47,23.15,23.15,0,0,1-9.22,1.49Q259,84.19,253.83,79a16.74,16.74,0,0,1-5.5-12.9,17.17,17.17,0,0,1,4.78-12.44q4.77-5.05,14-5.16h16V42.25q.12-7.91-11.83-7.67a20.43,20.43,0,0,0-6.83.92,8.42,8.42,0,0,0-4.12,3.69L251.26,32q6.62-8.89,19.49-8.67,10.88-.11,17.37,4.25T294.72,43V83.62H283.15Zm0-20H269.24q-10.14.23-10,7.18a6.43,6.43,0,0,0,2.62,5.16q2.51,2.36,8.29,2.35,7.29.12,10.29-1.77,2.73-1.9,2.73-8.61Z"/><path d="M349.34,74a31.31,31.31,0,0,1-8.9,7.25,24.4,24.4,0,0,1-11.83,3,25.5,25.5,0,0,1-17.92-7.17q-8-7.17-8.21-23.23.22-16.23,8.22-23.51a25.11,25.11,0,0,1,17.93-7.06,25.55,25.55,0,0,1,11.82,2.86,29.63,29.63,0,0,1,8.89,7.5l-8.56,7.84a14.37,14.37,0,0,0-11.72-6.27q-14.79-.23-15,18.64.21,18.77,15,18.48a14.05,14.05,0,0,0,11.72-6.22Z"/><path d="M359,0h11.58V52h.24L393,24.09h13.9L387,47.32l22.62,36.3H395.07L379.73,55.81l-9.12,10.67V83.62H359Z"/></g></g></svg>