<svg xmlns="http://www.w3.org/2000/svg" viewBox="0 0 71.6 75.02"><defs><style>.cls-1{fill:#666;}</style></defs><title>haystack-black-logo</title><g id="Layer_2" data-name="Layer 2"><g id="Layer_1-2" data-name="Layer 1"><path class="cls-1" d="M5,8.6l23-8.6-.81,15.18L5.79,18.59a1.16,1.16,0,0,1-1.35-1.06l-.56-7.11A1.81,1.81,0,0,1,5,8.6Z"/><path d="M62.16,19.41V15a1.63,1.63,0,0,0-1-1.52L28.08,0l-.81,15.18L61,20.44A1,1,0,0,0,62.16,19.41Z"/><path class="cls-1" d="M0,32v4.8a1.47,1.47,0,0,0,1.25,1.46l42.12,6.66L42.45,24.3,1.58,30.18A1.84,1.84,0,0,0,0,32Z"/><path d="M42.45,24.3l.92,20.63,27-4.29a1.42,1.42,0,0,0,1.2-1.4l0-8.54a2,2,0,0,0-1.72-2Z"/><path class="cls-1" d="M5.62,51.7v8.53a2.9,2.9,0,0,0,1.5,2.55L29.06,75,29,54.87,7.06,50.51A1.2,1.2,0,0,0,5.62,51.7Z"/><path d="M29,54.87,29.06,75,61.9,57.33a3,3,0,0,0,1.56-2.61V49.53a1.41,1.41,0,0,0-1.7-1.38Z"/></g></g></svg>